<svg xmlns="http://www.w3.org/2000/svg" width="55.68" height="57.55" viewBox="79.913 158.049 55.68 57.55"><g data-name="Icon"><path d="m119.706 167.582-8.956-8.956a1.978 1.978 0 0 0-1.403-.577h-6.966c-1.095 0-1.99.896-1.99 1.99v6.966c0 .547.219 1.045.587 1.413l8.956 8.956c.358.358.855.577 1.403.577.547 0 1.045-.219 1.403-.587l6.966-6.966c.368-.358.587-.856.587-1.403a2.01 2.01 0 0 0-.587-1.413Zm-15.833-4.558a1.49 1.49 0 0 1-1.492-1.492 1.49 1.49 0 0 1 1.492-1.493 1.49 1.49 0 0 1 1.493 1.493 1.49 1.49 0 0 1-1.493 1.492Z" fill="#f693d4" fill-rule="evenodd" data-name="Icon material-local-offer"/><path d="M96.484 204.552c-3.038 0-5.496 2.485-5.496 5.524 0 3.038 2.458 5.523 5.496 5.523 3.038 0 5.524-2.485 5.524-5.523 0-3.039-2.486-5.524-5.524-5.524Zm27.62 0c-3.039 0-5.497 2.485-5.497 5.524 0 3.038 2.458 5.523 5.496 5.523 3.038 0 5.524-2.485 5.524-5.523 0-3.039-2.486-5.524-5.524-5.524Zm-27.15-8.976.082-.332 2.486-4.502h20.576a5.498 5.498 0 0 0 4.834-2.845l10.66-19.36-4.805-2.652h-.028l-3.038 5.524-7.623 13.81H100.71l-.36-.746-6.186-13.064-2.624-5.524-2.596-5.524h-9.031v5.524h5.523l9.943 20.963-3.728 6.767a5.34 5.34 0 0 0-.69 2.651c0 3.038 2.485 5.524 5.523 5.524h33.143v-5.524H97.644a.702.702 0 0 1-.69-.69Z" fill="#f693d4" fill-rule="evenodd" data-name="Icon material-add-shopping-cart"/></g></svg>