<svg xmlns="http://www.w3.org/2000/svg" width="58" height="29" viewBox="286.733 57.3 58 29"><path d="M329.427 57.3c-5.99 0-10.676 3.743-13.694 7.123-3.017-3.38-7.703-7.123-13.693-7.123-8.437 0-15.307 6.507-15.307 14.5s6.87 14.5 15.307 14.5c5.99 0 10.676-3.743 13.693-7.123 3.018 3.38 7.704 7.123 13.694 7.123 8.437 0 15.306-6.507 15.306-14.5s-6.869-14.5-15.306-14.5ZM302.04 77.6c-3.643 0-6.607-2.6-6.607-5.8 0-3.199 2.964-5.8 6.607-5.8 3.462 0 6.652 3.272 8.519 5.8-1.849 2.502-5.066 5.8-8.519 5.8Zm27.387 0c-3.462 0-6.652-3.271-8.519-5.8 1.849-2.501 5.066-5.8 8.519-5.8 3.643 0 6.606 2.601 6.606 5.8 0 3.2-2.963 5.8-6.606 5.8Z" fill="#f693d4" fill-rule="evenodd" data-name="Icon awesome-infinity"/></svg>