<svg xmlns="http://www.w3.org/2000/svg" width="31.518" height="31.51" viewBox="1362.152 3109.483 31.518 31.51"><path d="M1377.914 3117.16a8.066 8.066 0 0 0-8.079 8.079 8.066 8.066 0 0 0 8.08 8.078 8.066 8.066 0 0 0 8.078-8.078 8.066 8.066 0 0 0-8.079-8.08Zm0 13.33a5.262 5.262 0 0 1-5.252-5.251 5.257 5.257 0 0 1 5.252-5.253 5.257 5.257 0 0 1 5.253 5.253 5.262 5.262 0 0 1-5.253 5.252Zm10.294-13.66a1.88 1.88 0 0 1-1.884 1.884 1.884 1.884 0 1 1 1.884-1.884Zm5.35 1.912c-.119-2.525-.695-4.76-2.545-6.603-1.842-1.842-4.078-2.418-6.602-2.545-2.601-.148-10.4-.148-13 0-2.518.12-4.754.696-6.603 2.538-1.85 1.843-2.419 4.078-2.545 6.603-.148 2.601-.148 10.399 0 13 .12 2.525.696 4.76 2.545 6.603 1.85 1.842 4.078 2.419 6.602 2.545 2.602.148 10.4.148 13.001 0 2.524-.12 4.76-.696 6.602-2.545 1.843-1.842 2.42-4.078 2.546-6.603.147-2.601.147-10.392 0-12.993Zm-3.36 15.785a5.318 5.318 0 0 1-2.995 2.995c-2.075.823-6.997.633-9.289.633s-7.22.183-9.288-.633a5.318 5.318 0 0 1-2.995-2.995c-.823-2.074-.633-6.996-.633-9.288 0-2.293-.183-7.222.633-9.289a5.318 5.318 0 0 1 2.995-2.995c2.074-.823 6.996-.633 9.288-.633s7.221-.183 9.289.633a5.318 5.318 0 0 1 2.995 2.995c.823 2.075.633 6.996.633 9.289 0 2.292.19 7.22-.633 9.288Z" fill="#f693d4" fill-rule="evenodd" data-name="Icon awesome-instagram"/></svg>