<svg xmlns="http://www.w3.org/2000/svg" width="22.507" height="56.051" viewBox="948.746 1020.651 22.507 56.051"><g data-name="Scroll Icon"><path d="m958.805 1062.708-9.563-9.563a1.68 1.68 0 0 1 0-2.383l1.59-1.59a1.68 1.68 0 0 1 2.383 0l6.778 6.779 6.778-6.778a1.68 1.68 0 0 1 2.384 0l1.603 1.582c.66.66.66 1.73 0 2.383l-9.563 9.563c-.66.668-1.73.668-2.39.007Zm2.39 13.5 9.563-9.563c.66-.66.66-1.73 0-2.383l-1.59-1.59a1.68 1.68 0 0 0-2.383 0l-6.785 6.772-6.778-6.778a1.68 1.68 0 0 0-2.384 0l-1.596 1.589a1.68 1.68 0 0 0 0 2.383l9.563 9.563c.66.668 1.73.668 2.39.007Z" fill="#f693d4" fill-rule="evenodd" data-name="Icon awesome-angle-double-down"/><path d="m958.805 1034.682-9.563-9.562a1.68 1.68 0 0 1 0-2.384l1.59-1.589a1.68 1.68 0 0 1 2.383 0l6.778 6.778 6.778-6.778a1.68 1.68 0 0 1 2.384 0l1.603 1.582c.66.661.66 1.73 0 2.384l-9.563 9.562c-.66.668-1.73.668-2.39.007Zm2.39 13.5 9.563-9.562c.66-.661.66-1.73 0-2.384l-1.59-1.589a1.68 1.68 0 0 0-2.383 0l-6.785 6.771-6.778-6.778a1.68 1.68 0 0 0-2.384 0l-1.596 1.589a1.68 1.68 0 0 0 0 2.384l9.563 9.562c.66.668 1.73.668 2.39.007Z" fill="#f693d4" fill-rule="evenodd" data-name="Icon awesome-angle-double-down"/></g></svg>