<svg xmlns="http://www.w3.org/2000/svg" width="58.674" height="58.674" viewBox="286.733 158.049 58.674 58.674"><g data-name="Icon ionic-md-speedometer"><path d="M316.07 158.049c-16.206 0-29.337 13.131-29.337 29.337a29.205 29.205 0 0 0 6.22 18.053h8.294l.564-.564 3.117-3.117-3.23-3.23-3.117 3.103a22.481 22.481 0 0 1-4.965-11.989h4.4v-4.513h-4.4a22.481 22.481 0 0 1 4.965-11.989l3.117 3.103 3.23-3.23-3.103-3.116a22.481 22.481 0 0 1 11.989-4.965v4.4h4.513v-4.4a22.481 22.481 0 0 1 11.988 4.965l-3.102 3.117 3.23 3.23 3.116-3.104a22.481 22.481 0 0 1 4.965 11.99h-4.4v4.512h4.4a22.481 22.481 0 0 1-4.965 11.989l-3.117-3.103-3.23 3.23 3.118 3.117.564.564h8.293a29.205 29.205 0 0 0 6.22-18.053c0-16.206-13.131-29.337-29.337-29.337Z" fill="#f693d4" fill-rule="evenodd" data-name="Trazado 526"/><path d="M316.07 191.9a4.508 4.508 0 0 0 4.514-4.514 4.509 4.509 0 0 0-4.514-4.514c-.423 0-.846.057-1.241.17l-9.407-6.87-.565.495 6.897 9.407a4.509 4.509 0 0 0 4.316 5.825Z" fill="#f693d4" fill-rule="evenodd" data-name="Trazado 525"/><path d="M298.017 209.953h36.107v6.77h-36.107v-6.77Z" fill="#f693d4" fill-rule="evenodd" data-name="Trazado 524"/></g></svg>