<svg xmlns="http://www.w3.org/2000/svg" width="58" height="58" viewBox="77.593 42.8 58 58"><path d="M99.343 66.363a3.625 3.625 0 0 0-3.625-3.625h-1.813a7.25 7.25 0 0 0-7.25 7.25v5.437a7.25 7.25 0 0 0 7.25 7.25h1.813a3.625 3.625 0 0 0 3.625-3.625V66.363Zm19.937 16.312a7.25 7.25 0 0 0 7.25-7.25v-5.437a7.25 7.25 0 0 0-7.25-7.25h-1.812a3.625 3.625 0 0 0-3.625 3.625V79.05a3.625 3.625 0 0 0 3.625 3.625h1.812ZM106.593 42.8c-16.18 0-28.481 13.462-29 29v1.813c0 1.001.81 1.812 1.812 1.812h1.813a1.812 1.812 0 0 0 1.812-1.812V71.8c0-12.992 10.57-23.562 23.563-23.562 12.992 0 23.562 10.57 23.562 23.562h-.013c.009.276.013 18.773.013 18.773a4.79 4.79 0 0 1-4.79 4.79h-11.522a5.437 5.437 0 0 0-5.438-5.438h-3.625a5.437 5.437 0 1 0 0 10.875h20.586c5.648 0 10.227-4.579 10.227-10.227V71.8c-.52-15.538-12.821-29-29-29Z" fill="#f693d4" fill-rule="evenodd" data-name="Icon awesome-headset"/></svg>