<svg xmlns="http://www.w3.org/2000/svg" width="36" height="29.239" viewBox="1170.152 3111.755 36 29.239"><path d="M1202.451 3119.042c.023.32.023.64.023.96 0 9.753-7.424 20.992-20.992 20.992a20.85 20.85 0 0 1-11.33-3.312c.594.068 1.165.091 1.782.091 3.449 0 6.624-1.165 9.16-3.152a7.391 7.391 0 0 1-6.899-5.117c.457.068.914.114 1.393.114.663 0 1.325-.091 1.942-.251a7.38 7.38 0 0 1-5.916-7.241v-.092a7.43 7.43 0 0 0 3.335.937 7.373 7.373 0 0 1-3.29-6.145c0-1.37.366-2.627 1.005-3.723a20.972 20.972 0 0 0 15.214 7.72 8.329 8.329 0 0 1-.183-1.69 7.375 7.375 0 0 1 7.378-7.378 7.36 7.36 0 0 1 5.39 2.33 14.526 14.526 0 0 0 4.684-1.781 7.358 7.358 0 0 1-3.244 4.065 14.791 14.791 0 0 0 4.249-1.142 15.86 15.86 0 0 1-3.7 3.815Z" fill="#f693d4" fill-rule="evenodd" data-name="Icon awesome-twitter"/></svg>