<svg xmlns="http://www.w3.org/2000/svg" width="58" height="41.177" viewBox="182.163 51.212 58 41.177"><path d="m198.48 79.539 3.58 3.58a12.84 12.84 0 0 1 9.103-3.777c3.553 0 6.772 1.446 9.103 3.777l3.58-3.58a17.89 17.89 0 0 0-12.683-5.254 17.89 17.89 0 0 0-12.683 5.254Zm-8.157-8.16 3.585 3.586c4.42-4.423 10.524-7.161 17.255-7.161s12.835 2.738 17.255 7.16l3.586-3.585c-5.333-5.332-12.701-8.632-20.84-8.632-8.14 0-15.508 3.3-20.841 8.632Zm20.84-20.167c-11.325 0-21.576 4.589-29 12.013l3.588 3.588c6.511-6.511 15.5-10.544 25.412-10.544 9.912 0 18.901 4.033 25.412 10.544l3.588-3.588c-7.423-7.424-17.674-12.013-29-12.013Zm0 33.591a3.794 3.794 0 0 0-3.792 3.793c0 2.094 1.699 3.793 3.792 3.793 2.094 0 3.793-1.7 3.793-3.793s-1.699-3.793-3.793-3.793Z" fill="#f693d4" fill-rule="evenodd" data-name="Icon metro-wifi-full"/></svg>